<?xml version="1.0" encoding="UTF-8"?>
<svg xmlns="http://www.w3.org/2000/svg" xmlns:xlink="http://www.w3.org/1999/xlink" viewBox="0 0 144 144" width="144px" height="144px">
<g id="surface9209595">
<path style=" stroke:none;fill-rule:nonzero;fill:rgb(94.509804%,76.862746%,5.882353%);fill-opacity:1;" d="M 132 33.328125 L 132 110.671875 C 132 114.480469 129.628906 117.871094 126.058594 119.128906 L 99.601562 131.550781 L 102 99 L 102 45 L 99.601562 12.449219 L 126.058594 24.871094 C 129.628906 26.128906 132 29.519531 132 33.328125 Z M 132 33.328125 "/>
<path style=" stroke:none;fill-rule:nonzero;fill:rgb(90.588236%,29.803923%,23.529412%);fill-opacity:1;" d="M 27 101.6875 L 102 45 L 102 16.058594 C 102 12.464844 97.554688 10.785156 95.175781 13.480469 L 13.972656 87.71875 C 11.273438 90.207031 11.425781 94.519531 14.296875 96.8125 C 14.296875 96.8125 18.265625 100.507812 19.703125 101.535156 C 21.910156 103.109375 24.8125 103.289062 27 101.6875 Z M 27 101.6875 "/>
<path style=" stroke:none;fill-rule:nonzero;fill:rgb(90.196079%,49.411765%,13.333334%);fill-opacity:1;" d="M 27 42.3125 L 102 99 L 102 127.941406 C 102 131.535156 97.554688 133.214844 95.175781 130.519531 L 13.972656 56.28125 C 11.273438 53.792969 11.425781 49.480469 14.296875 47.1875 C 14.296875 47.1875 18.265625 43.492188 19.703125 42.464844 C 21.910156 40.890625 24.8125 40.710938 27 42.3125 Z M 27 42.3125 "/>
</g>
</svg>
